<mxfile host="65bd71144e">
    <diagram id="4xTyBG_6OeA1Z_Vyl0Ss" name="PÃ¡gina-1">
        <mxGraphModel dx="1032" dy="756" grid="1" gridSize="10" guides="1" tooltips="1" connect="1" arrows="1" fold="1" page="1" pageScale="1" pageWidth="827" pageHeight="1169" math="0" shadow="0">
            <root>
                <mxCell id="0"/>
                <mxCell id="1" parent="0"/>
                <mxCell id="9" style="edgeStyle=none;html=1;entryX=0.5;entryY=0;entryDx=0;entryDy=0;" edge="1" parent="1" source="35" target="7">
                    <mxGeometry relative="1" as="geometry">
                        <mxPoint x="250" y="350" as="sourcePoint"/>
                    </mxGeometry>
                </mxCell>
                <mxCell id="10" style="edgeStyle=none;html=1;entryX=0.5;entryY=0;entryDx=0;entryDy=0;exitX=0.5;exitY=1;exitDx=0;exitDy=0;" edge="1" parent="1" source="33" target="8">
                    <mxGeometry relative="1" as="geometry">
                        <mxPoint x="490" y="350" as="sourcePoint"/>
                    </mxGeometry>
                </mxCell>
                <mxCell id="34" style="edgeStyle=none;html=1;entryX=0.5;entryY=0;entryDx=0;entryDy=0;fontColor=#000000;exitX=0.536;exitY=1.02;exitDx=0;exitDy=0;exitPerimeter=0;" edge="1" parent="1" source="2" target="33">
                    <mxGeometry relative="1" as="geometry"/>
                </mxCell>
                <mxCell id="36" style="edgeStyle=none;html=1;exitX=0.5;exitY=1;exitDx=0;exitDy=0;entryX=0.5;entryY=0;entryDx=0;entryDy=0;fontColor=#000000;" edge="1" parent="1" source="2" target="35">
                    <mxGeometry relative="1" as="geometry"/>
                </mxCell>
                <mxCell id="75" style="edgeStyle=none;html=1;exitX=1;exitY=0.5;exitDx=0;exitDy=0;fontSize=18;fontColor=#FFFFFF;entryX=0;entryY=0.5;entryDx=0;entryDy=0;" edge="1" parent="1" source="2" target="76">
                    <mxGeometry relative="1" as="geometry">
                        <mxPoint x="550" y="180" as="targetPoint"/>
                    </mxGeometry>
                </mxCell>
                <mxCell id="2" value="AllChatsMenu" style="rounded=0;whiteSpace=wrap;html=1;fillColor=#1ba1e2;fontColor=#ffffff;strokeColor=#006EAF;" vertex="1" parent="1">
                    <mxGeometry x="250" y="170" width="310" height="40" as="geometry"/>
                </mxCell>
                <mxCell id="4" style="edgeStyle=none;html=1;entryX=0.5;entryY=0;entryDx=0;entryDy=0;" edge="1" parent="1" source="3" target="2">
                    <mxGeometry relative="1" as="geometry"/>
                </mxCell>
                <mxCell id="3" value="screenWidth, visibility, setVisibility" style="rounded=0;whiteSpace=wrap;html=1;fillColor=#e3c800;fontColor=#000000;strokeColor=#B09500;" vertex="1" parent="1">
                    <mxGeometry x="255" y="95" width="305" height="45" as="geometry"/>
                </mxCell>
                <mxCell id="6" style="edgeStyle=none;html=1;entryX=0.5;entryY=0;entryDx=0;entryDy=0;exitX=0.5;exitY=1;exitDx=0;exitDy=0;" edge="1" parent="1" source="5" target="3">
                    <mxGeometry relative="1" as="geometry"/>
                </mxCell>
                <mxCell id="5" value="Main Page" style="rounded=0;whiteSpace=wrap;html=1;fillColor=#0050ef;fontColor=#ffffff;strokeColor=#001DBC;" vertex="1" parent="1">
                    <mxGeometry x="252.5" y="10" width="310" height="60" as="geometry"/>
                </mxCell>
                <mxCell id="12" style="edgeStyle=none;html=1;entryX=0.5;entryY=0;entryDx=0;entryDy=0;" edge="1" parent="1" source="7" target="11">
                    <mxGeometry relative="1" as="geometry"/>
                </mxCell>
                <mxCell id="7" value="Visibility : false" style="rounded=0;whiteSpace=wrap;html=1;fillColor=#e51400;fontColor=#ffffff;strokeColor=#B20000;" vertex="1" parent="1">
                    <mxGeometry x="35" y="360" width="170" height="40" as="geometry"/>
                </mxCell>
                <mxCell id="43" style="edgeStyle=none;html=1;fontColor=#000000;entryX=0.535;entryY=-0.045;entryDx=0;entryDy=0;entryPerimeter=0;" edge="1" parent="1" source="8" target="40">
                    <mxGeometry relative="1" as="geometry">
                        <mxPoint x="460" y="500" as="targetPoint"/>
                    </mxGeometry>
                </mxCell>
                <mxCell id="8" value="Visibility :&amp;nbsp; true&lt;br&gt;(always true in desktop)" style="rounded=0;whiteSpace=wrap;html=1;fillColor=#60a917;fontColor=#ffffff;strokeColor=#2D7600;" vertex="1" parent="1">
                    <mxGeometry x="485" y="370" width="240" height="40" as="geometry"/>
                </mxCell>
                <mxCell id="14" style="edgeStyle=none;html=1;exitX=0.5;exitY=1;exitDx=0;exitDy=0;startArrow=none;" edge="1" parent="1" source="59">
                    <mxGeometry relative="1" as="geometry">
                        <mxPoint x="94.5" y="515" as="sourcePoint"/>
                        <mxPoint x="115" y="550" as="targetPoint"/>
                    </mxGeometry>
                </mxCell>
                <mxCell id="94" style="edgeStyle=none;html=1;exitX=0.5;exitY=1;exitDx=0;exitDy=0;entryX=0.5;entryY=0;entryDx=0;entryDy=0;fontSize=12;fontColor=#FFFFFF;" edge="1" parent="1" source="11" target="59">
                    <mxGeometry relative="1" as="geometry"/>
                </mxCell>
                <mxCell id="11" value="Then this component aren't showed (AllChatsMenu)" style="rounded=0;whiteSpace=wrap;html=1;fillColor=#e51400;fontColor=#ffffff;strokeColor=#B20000;" vertex="1" parent="1">
                    <mxGeometry x="30" y="440" width="170" height="40" as="geometry"/>
                </mxCell>
                <mxCell id="13" value="end" style="text;html=1;align=center;verticalAlign=middle;resizable=0;points=[];autosize=1;strokeColor=none;fillColor=none;" vertex="1" parent="1">
                    <mxGeometry x="90" y="610" width="40" height="20" as="geometry"/>
                </mxCell>
                <mxCell id="15" value="" style="rounded=0;whiteSpace=wrap;html=1;fillColor=#0050ef;fontColor=#ffffff;strokeColor=#001DBC;" vertex="1" parent="1">
                    <mxGeometry y="40" width="40" height="20" as="geometry"/>
                </mxCell>
                <mxCell id="16" value="Parent component" style="text;html=1;align=center;verticalAlign=middle;resizable=0;points=[];autosize=1;strokeColor=none;fillColor=none;" vertex="1" parent="1">
                    <mxGeometry x="40" y="40" width="110" height="20" as="geometry"/>
                </mxCell>
                <mxCell id="17" value="" style="rounded=0;whiteSpace=wrap;html=1;fillColor=#1ba1e2;fontColor=#ffffff;strokeColor=#006EAF;" vertex="1" parent="1">
                    <mxGeometry y="100" width="40" height="20" as="geometry"/>
                </mxCell>
                <mxCell id="18" value="Focus component" style="text;html=1;align=center;verticalAlign=middle;resizable=0;points=[];autosize=1;strokeColor=none;fillColor=none;" vertex="1" parent="1">
                    <mxGeometry x="40" y="100" width="110" height="20" as="geometry"/>
                </mxCell>
                <mxCell id="19" value="" style="rounded=0;whiteSpace=wrap;html=1;fillColor=#e3c800;fontColor=#000000;strokeColor=#B09500;" vertex="1" parent="1">
                    <mxGeometry y="70" width="40" height="20" as="geometry"/>
                </mxCell>
                <mxCell id="20" value="Props" style="text;html=1;align=center;verticalAlign=middle;resizable=0;points=[];autosize=1;strokeColor=none;fillColor=none;" vertex="1" parent="1">
                    <mxGeometry x="40" y="70" width="50" height="20" as="geometry"/>
                </mxCell>
                <mxCell id="33" value="&lt;font color=&quot;#000000&quot;&gt;screenWidth &amp;gt; 830&lt;br&gt;(desktop)&lt;br&gt;&lt;/font&gt;" style="rounded=0;whiteSpace=wrap;html=1;fillColor=#e3c800;strokeColor=#B09500;fontColor=#000000;" vertex="1" parent="1">
                    <mxGeometry x="535" y="270" width="130" height="40" as="geometry"/>
                </mxCell>
                <mxCell id="38" style="edgeStyle=none;html=1;exitX=0.75;exitY=1;exitDx=0;exitDy=0;fontColor=#000000;entryX=0.5;entryY=0;entryDx=0;entryDy=0;" edge="1" parent="1" source="35" target="37">
                    <mxGeometry relative="1" as="geometry">
                        <mxPoint x="280" y="350" as="targetPoint"/>
                    </mxGeometry>
                </mxCell>
                <mxCell id="35" value="&lt;font color=&quot;#000000&quot;&gt;screenWidth &amp;lt; 830&lt;br&gt;(mobile)&lt;br&gt;&lt;/font&gt;" style="rounded=0;whiteSpace=wrap;html=1;fillColor=#e3c800;strokeColor=#B09500;fontColor=#000000;" vertex="1" parent="1">
                    <mxGeometry x="170" y="270" width="130" height="40" as="geometry"/>
                </mxCell>
                <mxCell id="41" style="edgeStyle=none;html=1;exitX=0.5;exitY=1;exitDx=0;exitDy=0;fontColor=#000000;entryX=0.5;entryY=0;entryDx=0;entryDy=0;" edge="1" parent="1" source="37" target="40">
                    <mxGeometry relative="1" as="geometry">
                        <mxPoint x="460" y="600" as="targetPoint"/>
                    </mxGeometry>
                </mxCell>
                <mxCell id="66" style="edgeStyle=none;html=1;exitX=0.5;exitY=1;exitDx=0;exitDy=0;entryX=0.5;entryY=0;entryDx=0;entryDy=0;fontColor=#000000;" edge="1" parent="1" source="37" target="64">
                    <mxGeometry relative="1" as="geometry"/>
                </mxCell>
                <mxCell id="37" value="Visibility :&amp;nbsp; true" style="rounded=0;whiteSpace=wrap;html=1;fillColor=#60a917;fontColor=#ffffff;strokeColor=#2D7600;" vertex="1" parent="1">
                    <mxGeometry x="266.5" y="360" width="125" height="40" as="geometry"/>
                </mxCell>
                <mxCell id="67" style="edgeStyle=none;html=1;fontColor=#000000;entryX=0.515;entryY=0.035;entryDx=0;entryDy=0;entryPerimeter=0;" edge="1" parent="1" source="40" target="68">
                    <mxGeometry relative="1" as="geometry">
                        <mxPoint x="420" y="690" as="targetPoint"/>
                    </mxGeometry>
                </mxCell>
                <mxCell id="71" style="edgeStyle=none;html=1;entryX=0.5;entryY=0;entryDx=0;entryDy=0;fontSize=18;fontColor=#FFFFFF;exitX=0.75;exitY=1;exitDx=0;exitDy=0;" edge="1" parent="1" source="8" target="69">
                    <mxGeometry relative="1" as="geometry"/>
                </mxCell>
                <mxCell id="40" value="component are showed" style="rounded=0;whiteSpace=wrap;html=1;fillColor=#1ba1e2;fontColor=#ffffff;strokeColor=#006EAF;" vertex="1" parent="1">
                    <mxGeometry x="365" y="520" width="300" height="40" as="geometry"/>
                </mxCell>
                <mxCell id="47" value="SearchBox" style="rounded=0;whiteSpace=wrap;html=1;fontColor=#ffffff;fillColor=#6a00ff;strokeColor=#3700CC;" vertex="1" parent="1">
                    <mxGeometry x="234" y="700" width="170" height="40" as="geometry"/>
                </mxCell>
                <mxCell id="48" value="" style="rounded=0;whiteSpace=wrap;html=1;fillColor=#6a00ff;fontColor=#ffffff;strokeColor=#3700CC;" vertex="1" parent="1">
                    <mxGeometry y="130" width="40" height="20" as="geometry"/>
                </mxCell>
                <mxCell id="49" value="Child Components" style="text;html=1;align=center;verticalAlign=middle;resizable=0;points=[];autosize=1;strokeColor=none;fillColor=none;" vertex="1" parent="1">
                    <mxGeometry x="40" y="130" width="110" height="20" as="geometry"/>
                </mxCell>
                <mxCell id="54" style="edgeStyle=none;html=1;exitX=1;exitY=0.5;exitDx=0;exitDy=0;fontColor=#000000;entryX=0.002;entryY=0.53;entryDx=0;entryDy=0;entryPerimeter=0;" edge="1" parent="1" source="53" target="55">
                    <mxGeometry relative="1" as="geometry">
                        <mxPoint x="550" y="710" as="targetPoint"/>
                    </mxGeometry>
                </mxCell>
                <mxCell id="53" value="ChatCard" style="rounded=0;whiteSpace=wrap;html=1;fontColor=#ffffff;fillColor=#6a00ff;strokeColor=#3700CC;" vertex="1" parent="1">
                    <mxGeometry x="233" y="760" width="170" height="40" as="geometry"/>
                </mxCell>
                <mxCell id="55" value="Receives setVisibility as a prop to&amp;nbsp;&lt;br&gt;change visibility in mobile version&lt;br&gt;and alternate between AllChatsMenu and&lt;br&gt;ChatAreaMenu" style="text;html=1;align=center;verticalAlign=middle;resizable=0;points=[];autosize=1;strokeColor=#B09500;fillColor=#e3c800;fontColor=#000000;" vertex="1" parent="1">
                    <mxGeometry x="482.5" y="750" width="230" height="60" as="geometry"/>
                </mxCell>
                <mxCell id="63" style="edgeStyle=none;html=1;exitX=0.5;exitY=1;exitDx=0;exitDy=0;fontColor=#000000;" edge="1" parent="1" source="59" target="13">
                    <mxGeometry relative="1" as="geometry"/>
                </mxCell>
                <mxCell id="64" value="ChatAreaMenu hidden" style="rounded=0;whiteSpace=wrap;html=1;dashed=1;" vertex="1" parent="1">
                    <mxGeometry x="239" y="450" width="120" height="30" as="geometry"/>
                </mxCell>
                <mxCell id="68" value="Rendered itens:&amp;nbsp;" style="text;html=1;align=center;verticalAlign=middle;resizable=0;points=[];autosize=1;strokeColor=none;fillColor=none;fontColor=#FFFFFF;spacing=6;fontSize=18;" vertex="1" parent="1">
                    <mxGeometry x="239" y="640" width="160" height="40" as="geometry"/>
                </mxCell>
                <mxCell id="69" value="ChatAreaMenu showed too" style="rounded=0;whiteSpace=wrap;html=1;dashed=1;" vertex="1" parent="1">
                    <mxGeometry x="680" y="470" width="120" height="30" as="geometry"/>
                </mxCell>
                <mxCell id="74" style="edgeStyle=none;html=1;fontSize=18;fontColor=#FFFFFF;entryX=0;entryY=0.5;entryDx=0;entryDy=0;exitX=1;exitY=0.5;exitDx=0;exitDy=0;" edge="1" parent="1" source="72" target="79">
                    <mxGeometry relative="1" as="geometry">
                        <mxPoint x="490" y="910" as="targetPoint"/>
                        <mxPoint x="410" y="820" as="sourcePoint"/>
                    </mxGeometry>
                </mxCell>
                <mxCell id="72" value="NewChatButton" style="rounded=0;whiteSpace=wrap;html=1;fontColor=#ffffff;fillColor=#6a00ff;strokeColor=#3700CC;" vertex="1" parent="1">
                    <mxGeometry x="234" y="820" width="170" height="40" as="geometry"/>
                </mxCell>
                <mxCell id="73" value="NewChatWindow&lt;br&gt;(Showed)" style="rounded=0;whiteSpace=wrap;html=1;fontColor=#ffffff;fillColor=#6a00ff;strokeColor=#3700CC;" vertex="1" parent="1">
                    <mxGeometry x="80" y="1100" width="170" height="40" as="geometry"/>
                </mxCell>
                <mxCell id="76" value="States:&lt;br&gt;newChatWindowVisibility" style="rounded=0;whiteSpace=wrap;html=1;fontSize=12;fontColor=#ffffff;fillColor=#647687;strokeColor=#314354;" vertex="1" parent="1">
                    <mxGeometry x="620" y="170" width="190" height="40" as="geometry"/>
                </mxCell>
                <mxCell id="77" value="" style="rounded=0;whiteSpace=wrap;html=1;fillColor=#647687;fontColor=#ffffff;strokeColor=#314354;" vertex="1" parent="1">
                    <mxGeometry y="160" width="40" height="20" as="geometry"/>
                </mxCell>
                <mxCell id="78" value="States (Focus component)" style="text;html=1;align=center;verticalAlign=middle;resizable=0;points=[];autosize=1;strokeColor=none;fillColor=none;" vertex="1" parent="1">
                    <mxGeometry x="40" y="160" width="160" height="20" as="geometry"/>
                </mxCell>
                <mxCell id="79" value="Receives&lt;br&gt;setNewChatWindowVisibility as a &lt;br&gt;prop" style="rounded=0;whiteSpace=wrap;html=1;fontSize=12;fontColor=#ffffff;fillColor=#647687;strokeColor=#314354;" vertex="1" parent="1">
                    <mxGeometry x="482.5" y="830" width="227.5" height="50" as="geometry"/>
                </mxCell>
                <mxCell id="83" style="edgeStyle=none;html=1;entryX=0.618;entryY=0;entryDx=0;entryDy=0;entryPerimeter=0;fontSize=12;fontColor=#FFFFFF;" edge="1" parent="1" source="80" target="73">
                    <mxGeometry relative="1" as="geometry"/>
                </mxCell>
                <mxCell id="80" value="newChatWindowVisibility : true" style="rounded=0;whiteSpace=wrap;html=1;fontSize=12;fontColor=#ffffff;fillColor=#647687;strokeColor=#314354;" vertex="1" parent="1">
                    <mxGeometry x="40" y="1020" width="290" height="60" as="geometry"/>
                </mxCell>
                <mxCell id="86" style="edgeStyle=none;html=1;exitX=0.5;exitY=1;exitDx=0;exitDy=0;fontSize=12;fontColor=#FFFFFF;" edge="1" parent="1" source="82" target="85">
                    <mxGeometry relative="1" as="geometry"/>
                </mxCell>
                <mxCell id="82" value="newChatWindowVisibility : false" style="rounded=0;whiteSpace=wrap;html=1;fontSize=12;fontColor=#ffffff;fillColor=#647687;strokeColor=#314354;" vertex="1" parent="1">
                    <mxGeometry x="365" y="1020" width="290" height="60" as="geometry"/>
                </mxCell>
                <mxCell id="87" style="edgeStyle=none;html=1;exitX=1;exitY=0.5;exitDx=0;exitDy=0;fontSize=12;fontColor=#FFFFFF;entryX=0;entryY=0.5;entryDx=0;entryDy=0;" edge="1" parent="1" source="84" target="88">
                    <mxGeometry relative="1" as="geometry">
                        <mxPoint x="500" y="980" as="targetPoint"/>
                    </mxGeometry>
                </mxCell>
                <mxCell id="89" style="edgeStyle=none;html=1;exitX=0.5;exitY=1;exitDx=0;exitDy=0;fontSize=12;fontColor=#FFFFFF;entryX=0.5;entryY=0;entryDx=0;entryDy=0;" edge="1" parent="1" source="84" target="80">
                    <mxGeometry relative="1" as="geometry">
                        <mxPoint x="170" y="1000" as="targetPoint"/>
                        <Array as="points">
                            <mxPoint x="320" y="1000"/>
                            <mxPoint x="188" y="1000"/>
                        </Array>
                    </mxGeometry>
                </mxCell>
                <mxCell id="90" style="edgeStyle=none;html=1;entryX=0.524;entryY=0.03;entryDx=0;entryDy=0;fontSize=12;fontColor=#FFFFFF;entryPerimeter=0;" edge="1" parent="1" source="84" target="82">
                    <mxGeometry relative="1" as="geometry">
                        <Array as="points">
                            <mxPoint x="319" y="1000"/>
                            <mxPoint x="520" y="1000"/>
                        </Array>
                    </mxGeometry>
                </mxCell>
                <mxCell id="84" value="NewChatWindow&lt;br&gt;(conditional render)" style="rounded=0;whiteSpace=wrap;html=1;fontColor=#ffffff;fillColor=#6a00ff;strokeColor=#3700CC;" vertex="1" parent="1">
                    <mxGeometry x="234" y="880" width="169" height="40" as="geometry"/>
                </mxCell>
                <mxCell id="85" value="NewChatWindow&lt;br&gt;Hidden" style="rounded=0;whiteSpace=wrap;html=1;fontColor=#ffffff;fillColor=#6a00ff;strokeColor=#3700CC;" vertex="1" parent="1">
                    <mxGeometry x="430" y="1100" width="170" height="40" as="geometry"/>
                </mxCell>
                <mxCell id="88" value="Receives&lt;br&gt;NewChatWindowVisibility and &lt;br&gt;setNewChatVisibility as a &lt;br&gt;props" style="rounded=0;whiteSpace=wrap;html=1;fontSize=12;fontColor=#ffffff;fillColor=#647687;strokeColor=#314354;" vertex="1" parent="1">
                    <mxGeometry x="482.5" y="900" width="227.5" height="70" as="geometry"/>
                </mxCell>
                <mxCell id="59" value="ChatAreaMenu being showed" style="rounded=0;whiteSpace=wrap;html=1;dashed=1;" vertex="1" parent="1">
                    <mxGeometry x="20" y="520" width="180" height="30" as="geometry"/>
                </mxCell>
            </root>
        </mxGraphModel>
    </diagram>
</mxfile>